<mxfile host="app.diagrams.net" agent="Mozilla/5.0 (Windows NT 10.0; Win64; x64) AppleWebKit/537.36 (KHTML, like Gecko) Chrome/134.0.0.0 Safari/537.36" version="26.2.3">
  <diagram name="第 1 页" id="F9_qSjsPGPB7CKtSwl5K">
    <mxGraphModel dx="1428" dy="751" grid="1" gridSize="10" guides="1" tooltips="1" connect="1" arrows="1" fold="1" page="1" pageScale="1" pageWidth="827" pageHeight="1169" math="0" shadow="0">
      <root>
        <mxCell id="0" />
        <mxCell id="1" parent="0" />
        <mxCell id="dGZaan_xsMH4b8BEWvV6-1" value="" style="whiteSpace=wrap;html=1;aspect=fixed;fontSize=16;fillColor=#fad7ac;strokeColor=#b46504;" vertex="1" parent="1">
          <mxGeometry x="160" y="140" width="190" height="190" as="geometry" />
        </mxCell>
        <mxCell id="dGZaan_xsMH4b8BEWvV6-2" value="GC前" style="text;html=1;align=center;verticalAlign=middle;resizable=0;points=[];autosize=1;strokeColor=none;fillColor=none;fontSize=16;" vertex="1" parent="1">
          <mxGeometry x="200" y="88" width="60" height="30" as="geometry" />
        </mxCell>
        <mxCell id="dGZaan_xsMH4b8BEWvV6-3" value="" style="whiteSpace=wrap;html=1;aspect=fixed;fontSize=16;" vertex="1" parent="1">
          <mxGeometry x="510" y="118" width="42" height="42" as="geometry" />
        </mxCell>
        <mxCell id="dGZaan_xsMH4b8BEWvV6-4" value="未用" style="text;html=1;align=center;verticalAlign=middle;resizable=0;points=[];autosize=1;strokeColor=none;fillColor=none;fontSize=16;" vertex="1" parent="1">
          <mxGeometry x="565" y="124" width="60" height="30" as="geometry" />
        </mxCell>
        <mxCell id="dGZaan_xsMH4b8BEWvV6-5" value="" style="whiteSpace=wrap;html=1;aspect=fixed;fillColor=#e51400;fontColor=#ffffff;strokeColor=#B20000;fontSize=16;" vertex="1" parent="1">
          <mxGeometry x="510" y="180" width="42" height="42" as="geometry" />
        </mxCell>
        <mxCell id="dGZaan_xsMH4b8BEWvV6-6" value="" style="whiteSpace=wrap;html=1;aspect=fixed;fillColor=#ffcccc;strokeColor=#36393d;fontSize=16;" vertex="1" parent="1">
          <mxGeometry x="510" y="250" width="42" height="42" as="geometry" />
        </mxCell>
        <mxCell id="dGZaan_xsMH4b8BEWvV6-7" value="删除" style="text;html=1;align=center;verticalAlign=middle;resizable=0;points=[];autosize=1;strokeColor=none;fillColor=none;fontSize=16;" vertex="1" parent="1">
          <mxGeometry x="565" y="186" width="60" height="30" as="geometry" />
        </mxCell>
        <mxCell id="dGZaan_xsMH4b8BEWvV6-8" value="存储数据" style="text;html=1;align=center;verticalAlign=middle;resizable=0;points=[];autosize=1;strokeColor=none;fillColor=none;fontSize=16;" vertex="1" parent="1">
          <mxGeometry x="550" y="256" width="90" height="30" as="geometry" />
        </mxCell>
        <mxCell id="dGZaan_xsMH4b8BEWvV6-9" value="" style="whiteSpace=wrap;html=1;aspect=fixed;fontSize=16;" vertex="1" parent="1">
          <mxGeometry x="190" y="154" width="42" height="42" as="geometry" />
        </mxCell>
        <mxCell id="dGZaan_xsMH4b8BEWvV6-10" value="" style="whiteSpace=wrap;html=1;aspect=fixed;fillColor=#ffcccc;strokeColor=#36393d;fontSize=16;" vertex="1" parent="1">
          <mxGeometry x="240" y="154" width="42" height="42" as="geometry" />
        </mxCell>
        <mxCell id="dGZaan_xsMH4b8BEWvV6-11" value="" style="whiteSpace=wrap;html=1;aspect=fixed;fontSize=16;" vertex="1" parent="1">
          <mxGeometry x="290" y="154" width="42" height="42" as="geometry" />
        </mxCell>
        <mxCell id="dGZaan_xsMH4b8BEWvV6-12" value="" style="whiteSpace=wrap;html=1;aspect=fixed;fillColor=#e51400;fontColor=#ffffff;strokeColor=#B20000;fontSize=16;" vertex="1" parent="1">
          <mxGeometry x="190" y="214" width="42" height="42" as="geometry" />
        </mxCell>
        <mxCell id="dGZaan_xsMH4b8BEWvV6-13" value="" style="whiteSpace=wrap;html=1;aspect=fixed;fontSize=16;" vertex="1" parent="1">
          <mxGeometry x="240" y="214" width="42" height="42" as="geometry" />
        </mxCell>
        <mxCell id="dGZaan_xsMH4b8BEWvV6-14" value="" style="whiteSpace=wrap;html=1;aspect=fixed;fillColor=#ffcccc;strokeColor=#36393d;fontSize=16;" vertex="1" parent="1">
          <mxGeometry x="290" y="214" width="42" height="42" as="geometry" />
        </mxCell>
        <mxCell id="dGZaan_xsMH4b8BEWvV6-15" value="" style="whiteSpace=wrap;html=1;aspect=fixed;fillColor=#ffcccc;strokeColor=#36393d;fontSize=16;" vertex="1" parent="1">
          <mxGeometry x="290" y="270" width="42" height="42" as="geometry" />
        </mxCell>
        <mxCell id="dGZaan_xsMH4b8BEWvV6-16" value="" style="whiteSpace=wrap;html=1;aspect=fixed;fillColor=#ffcccc;strokeColor=#36393d;fontSize=16;" vertex="1" parent="1">
          <mxGeometry x="190" y="270" width="42" height="42" as="geometry" />
        </mxCell>
        <mxCell id="dGZaan_xsMH4b8BEWvV6-18" value="" style="whiteSpace=wrap;html=1;aspect=fixed;fillColor=#e51400;fontColor=#ffffff;strokeColor=#B20000;fontSize=16;" vertex="1" parent="1">
          <mxGeometry x="240" y="270" width="42" height="42" as="geometry" />
        </mxCell>
        <mxCell id="dGZaan_xsMH4b8BEWvV6-19" value="GC后" style="text;html=1;align=center;verticalAlign=middle;resizable=0;points=[];autosize=1;strokeColor=none;fillColor=none;fontSize=16;" vertex="1" parent="1">
          <mxGeometry x="200" y="378" width="60" height="30" as="geometry" />
        </mxCell>
        <mxCell id="dGZaan_xsMH4b8BEWvV6-20" value="" style="whiteSpace=wrap;html=1;aspect=fixed;fontSize=16;fillColor=#fad7ac;strokeColor=#b46504;" vertex="1" parent="1">
          <mxGeometry x="160" y="430" width="190" height="190" as="geometry" />
        </mxCell>
        <mxCell id="dGZaan_xsMH4b8BEWvV6-21" value="" style="whiteSpace=wrap;html=1;aspect=fixed;fillColor=#ffcccc;strokeColor=#36393d;fontSize=16;" vertex="1" parent="1">
          <mxGeometry x="190" y="444" width="42" height="42" as="geometry" />
        </mxCell>
        <mxCell id="dGZaan_xsMH4b8BEWvV6-22" value="" style="whiteSpace=wrap;html=1;aspect=fixed;fillColor=#ffcccc;strokeColor=#36393d;fontSize=16;" vertex="1" parent="1">
          <mxGeometry x="240" y="444" width="42" height="42" as="geometry" />
        </mxCell>
        <mxCell id="dGZaan_xsMH4b8BEWvV6-23" value="" style="whiteSpace=wrap;html=1;aspect=fixed;fillColor=#ffcccc;strokeColor=#36393d;fontSize=16;" vertex="1" parent="1">
          <mxGeometry x="290" y="444" width="42" height="42" as="geometry" />
        </mxCell>
        <mxCell id="dGZaan_xsMH4b8BEWvV6-24" value="" style="whiteSpace=wrap;html=1;aspect=fixed;fillColor=#ffcccc;strokeColor=#36393d;fontSize=16;" vertex="1" parent="1">
          <mxGeometry x="190" y="504" width="42" height="42" as="geometry" />
        </mxCell>
        <mxCell id="dGZaan_xsMH4b8BEWvV6-25" value="" style="whiteSpace=wrap;html=1;aspect=fixed;fillColor=#ffcccc;strokeColor=#36393d;fontSize=16;" vertex="1" parent="1">
          <mxGeometry x="240" y="504" width="42" height="42" as="geometry" />
        </mxCell>
        <mxCell id="dGZaan_xsMH4b8BEWvV6-26" value="" style="whiteSpace=wrap;html=1;aspect=fixed;fillColor=#ffcccc;strokeColor=#36393d;fontSize=16;" vertex="1" parent="1">
          <mxGeometry x="290" y="504" width="42" height="42" as="geometry" />
        </mxCell>
        <mxCell id="dGZaan_xsMH4b8BEWvV6-27" value="" style="whiteSpace=wrap;html=1;aspect=fixed;fillColor=#ffcccc;strokeColor=#36393d;fontSize=16;" vertex="1" parent="1">
          <mxGeometry x="290" y="560" width="42" height="42" as="geometry" />
        </mxCell>
        <mxCell id="dGZaan_xsMH4b8BEWvV6-28" value="" style="whiteSpace=wrap;html=1;aspect=fixed;fillColor=#ffcccc;strokeColor=#36393d;fontSize=16;" vertex="1" parent="1">
          <mxGeometry x="190" y="560" width="42" height="42" as="geometry" />
        </mxCell>
        <mxCell id="dGZaan_xsMH4b8BEWvV6-29" value="" style="whiteSpace=wrap;html=1;aspect=fixed;fillColor=#ffcccc;strokeColor=#36393d;fontSize=16;" vertex="1" parent="1">
          <mxGeometry x="240" y="560" width="42" height="42" as="geometry" />
        </mxCell>
        <mxCell id="dGZaan_xsMH4b8BEWvV6-30" value="" style="whiteSpace=wrap;html=1;aspect=fixed;fontSize=16;fillColor=#fad7ac;strokeColor=#b46504;" vertex="1" parent="1">
          <mxGeometry x="160" y="660" width="190" height="190" as="geometry" />
        </mxCell>
        <mxCell id="dGZaan_xsMH4b8BEWvV6-31" value="" style="whiteSpace=wrap;html=1;aspect=fixed;fontSize=16;" vertex="1" parent="1">
          <mxGeometry x="190" y="674" width="42" height="42" as="geometry" />
        </mxCell>
        <mxCell id="dGZaan_xsMH4b8BEWvV6-32" value="" style="whiteSpace=wrap;html=1;aspect=fixed;fillColor=#e51400;strokeColor=#B20000;fontColor=#ffffff;fontSize=16;" vertex="1" parent="1">
          <mxGeometry x="240" y="674" width="42" height="42" as="geometry" />
        </mxCell>
        <mxCell id="dGZaan_xsMH4b8BEWvV6-33" value="" style="whiteSpace=wrap;html=1;aspect=fixed;fontSize=16;" vertex="1" parent="1">
          <mxGeometry x="290" y="674" width="42" height="42" as="geometry" />
        </mxCell>
        <mxCell id="dGZaan_xsMH4b8BEWvV6-34" value="" style="whiteSpace=wrap;html=1;aspect=fixed;fontSize=16;" vertex="1" parent="1">
          <mxGeometry x="190" y="734" width="42" height="42" as="geometry" />
        </mxCell>
        <mxCell id="dGZaan_xsMH4b8BEWvV6-35" value="" style="whiteSpace=wrap;html=1;aspect=fixed;fontSize=16;" vertex="1" parent="1">
          <mxGeometry x="240" y="734" width="42" height="42" as="geometry" />
        </mxCell>
        <mxCell id="dGZaan_xsMH4b8BEWvV6-36" value="" style="whiteSpace=wrap;html=1;aspect=fixed;fillColor=#e51400;strokeColor=#B20000;fontColor=#ffffff;fontSize=16;" vertex="1" parent="1">
          <mxGeometry x="290" y="734" width="42" height="42" as="geometry" />
        </mxCell>
        <mxCell id="dGZaan_xsMH4b8BEWvV6-37" value="" style="whiteSpace=wrap;html=1;aspect=fixed;fillColor=#e51400;strokeColor=#B20000;fontColor=#ffffff;fontSize=16;" vertex="1" parent="1">
          <mxGeometry x="290" y="790" width="42" height="42" as="geometry" />
        </mxCell>
        <mxCell id="dGZaan_xsMH4b8BEWvV6-38" value="" style="whiteSpace=wrap;html=1;aspect=fixed;fillColor=#e51400;strokeColor=#B20000;fontColor=#ffffff;fontSize=16;" vertex="1" parent="1">
          <mxGeometry x="190" y="790" width="42" height="42" as="geometry" />
        </mxCell>
        <mxCell id="dGZaan_xsMH4b8BEWvV6-39" value="" style="whiteSpace=wrap;html=1;aspect=fixed;fillColor=#e51400;fontColor=#ffffff;strokeColor=#B20000;fontSize=16;" vertex="1" parent="1">
          <mxGeometry x="240" y="790" width="42" height="42" as="geometry" />
        </mxCell>
      </root>
    </mxGraphModel>
  </diagram>
</mxfile>
